<svg id="Layer_2" data-name="Layer 2" xmlns="http://www.w3.org/2000/svg" viewBox="0 0 1214.33 446.55"><defs><style>.cls-1{fill:#d63347;}.cls-2{fill:#fff;}</style></defs><title>OptiksInternational-HighRes</title><path class="cls-1" d="M598.68,67.81c-1.34,0-3.27,3.79-5.58,10.78a91.29,91.29,0,0,1-8.33,17.94c-2.68,4.46-8,1.93-9.3.82S568,90.28,564.6,88.49s-.52,9.3.15,11.31,5.58,20.31,6.7,24.33c0,0,9.67,28.72,3.87,31.62s-19.5-14.36-28.2-31.54c0,0-5.36-10.27-4.69-2s1.45,18.64-5.47,18.19-16.18-4.58-22.66-8.15-8.48-1.78-4.91,3.57,8.71,16.86,8.49,20.43.55,9.49-12.62,9.93-3,5.1-1.34,6.25,37.62,29.47,41.19,32.59,5.11,8.93,3.55,11.39-2.46,8,2,7.59,26.11-7.14,28.12-7.81,7.37-1.34,9.82.44,3.8,4.47,4.25,8.71,0,35.06,0,35.06,2.23,2.9,4,2.9h0c1.79,0,4-2.9,4-2.9s-.44-30.81,0-35.06,1.79-6.92,4.24-8.71,7.82-1.11,9.83-.44,24.1,7.37,28.57,7.81,3.57-5.13,2-7.59-.89-8.49,2.68-11.61,41.07-32.81,42.85-33.71,11.84-5.8-1.33-6.25-13.4-4.24-13.62-7.81,5.36-15.85,8.93-21.21,1.56-7.14-4.91-3.57a56.27,56.27,0,0,1-21.88,6.48c-6.92.44-6.47-8-5.8-16.3s-4.69,2-4.69,2c-8.71,17.19-23,34.15-28.8,31.25s4.69-31.25,4.69-31.25c1.12-4,6.25-22.77,6.92-24.78s4-13.39.67-11.61-10,7.82-11.38,8.93-7.37,4-10-.52-4.76-10.71-6.55-17.86S599.94,67.81,598.68,67.81Z" transform="translate(-4.46 -67.81)"/><rect x="364.3" y="222.44" width="850.03" height="224.11"/><path d="M4.61,413.47c0-4.64.06-8-.15-10.65.11-9.07.65-17.69,1.34-26.11A154.66,154.66,0,0,1,9.67,352.9a56.05,56.05,0,0,1,8-17.86c3.29-4.8,7.29-10.72,17.56-10.72,7.74,0,10.94,5,15.14,11.41,2.87,4.39,9,21.48,9.86,32.94,1.15,14.75,1.49,29.73,1.49,38.54,0,22.6-1.71,33.64-5,46.81S44.42,483.11,34.9,483.11c-9,0-18.83-6.7-25.08-30.65A162.46,162.46,0,0,1,4.61,413.47ZM26.38,448.1c1.95,3.49,4.6,5.34,7.48,5.29s5.61-2.43,7.43-5.66c1.57-2.79,2.83-4.43,4.17-16.19,1-8.76.71-26.25.75-31,.09-11.71-.1-20.32-1.27-26.93-2.62-14.77-8-18.67-10.94-18.57-6.59.22-11,8.7-12.35,19.15-1.14,8.93-1.08,10.54-1.28,27.08C20.57,403.4,18.19,433.44,26.38,448.1Z" transform="translate(-4.46 -67.81)"/><path d="M75.79,479.36V326.85H97.22c9.71,0,18.4,4.59,22.87,10.86s6.24,16.25,6.55,29.76c0,17,0,20.56-1.24,26.87-1.73,9-4.09,15.08-6.56,18.39-4,5.39-7,7.06-11.54,8.18-2.62.64-14.42.3-15.86.3v58.15ZM91.37,396.2c6,0,12.76.63,16.56-3.28,3.16-3.25,3.68-8,3.68-20.83,0-9.45-.21-12.67-2.71-15.74-2-2.46-8.17-3.16-8.17-3.16-3.78-.19-6,0-9.29,0Z" transform="translate(-4.46 -67.81)"/><path d="M134.87,328.14h52.41v27.95H169.4V479.36H153.29V356.09H134.87Z" transform="translate(-4.46 -67.81)"/><path d="M219.46,328.14V479.36H203.81V328.14Z" transform="translate(-4.46 -67.81)"/><path d="M255,394.42l22.61-66.28h16.26L268.62,401.3l27.07,78.06H277.58L255,410.79l-.27,68.57H239V328.14h15.64Z" transform="translate(-4.46 -67.81)"/><path d="M306,441c2.53,5.06,7.36,15.39,12.72,15.44,5.58.06,9.15-11.33,9.15-17,0-8.26-.44-11.39-4.8-18-1-1.47-4.64-5.72-5.24-6.36-6.55-6.86-9-10.55-11.61-16.41s-5.57-17.16-5.64-24.46c-.16-15,2.61-32.06,7.28-39.53,3.35-5.36,7.89-10.27,14.28-10.27,4.84,0,8.78,3.28,11.16,6.56,2,2.7,4.25,7.8,6.63,14.5l-7.82,18.38s-2.52-5.17-4.63-9.16c-2.62-5-8.09-4.39-10.4-1.41-2.75,3.55-3.12,8-3.12,13.84,0,8.07,4.09,16.37,11.83,24.41,1,1,8.2,9.61,11.53,17.11,2.65,5.94,5.21,13.8,5.21,31.55,0,10.76-3.22,21.12-6.1,28.27a33.6,33.6,0,0,1-7.66,10.84c-6.48,5.47-12.62,6.37-19.94-1.84-1.88-2.1-5.16-6-9-16.87Z" transform="translate(-4.46 -67.81)"/><path class="cls-2" d="M418.74,324.26V478.58H402.11V324.26Z" transform="translate(-4.46 -67.81)"/><path class="cls-2" d="M439.05,478.58V324.26h14.33l22.53,95.9v-95.9h14V478.58H475.76l-23.21-89.82.14,17-.14,40.48.29,32.38Z" transform="translate(-4.46 -67.81)"/><path class="cls-2" d="M503.78,324.26h53.47v31.67H538.46V478.58H521.22V355.93H503.78Z" transform="translate(-4.46 -67.81)"/><path class="cls-2" d="M571,324.26h51.72v31.67h-33.4V384.4h31.89v29.89l-34.15.21v34l35.66-.21v30.28H571Z" transform="translate(-4.46 -67.81)"/><path class="cls-2" d="M638.24,478.58V324.26H660.1c8.93,0,17.12,3.62,21.4,8.95,2.29,2.83,4,7.73,5.58,12a94.08,94.08,0,0,1,3,21.09c.22,23.77-3.91,35.17-7.81,41.29-1.64,2.57-5.68,6.28-8.34,6.8l21.35,64.24H676.66l-22-62.19-.37,62.19Zm16-86.75s11.83,1,15.2-2.7c3.8-4.13,4.8-10.43,4.8-18.53,0-6.72-1.12-12.5-5.08-15.2-5.71-3.89-14.92-3-14.92-3Z" transform="translate(-4.46 -67.81)"/><path class="cls-2" d="M792.37,324.26h15.57l22.64,154.32h-17L810.34,449h-21L786,478.58H769.38ZM807,424.1l-7-68.72L792.4,424.1Z" transform="translate(-4.46 -67.81)"/><path class="cls-2" d="M913.9,324.26V478.58H897.27V324.26Z" transform="translate(-4.46 -67.81)"/><path class="cls-2" d="M1136.91,324.26h14.85l.07,123.73,34.82.14v30.45h-49.74Z" transform="translate(-4.46 -67.81)"/><path class="cls-2" d="M706.91,479.67V324.26h14.33l22.54,97v-97h14V479.67H743.63l-23.22-89.82.14,17-.14,40.48.3,32.38Z" transform="translate(-4.46 -67.81)"/><path class="cls-2" d="M1085.91,324.26h15.57l22.64,154.32h-17L1103.89,449h-21l-3.36,29.54h-16.64Zm14.67,99.84-7-68.72L1086,424.1Z" transform="translate(-4.46 -67.81)"/><path class="cls-2" d="M830.58,324.26h53.47V357h-18.8V479.67H848V357H830.58Z" transform="translate(-4.46 -67.81)"/><path class="cls-2" d="M928.16,411.17c0-4.64.06-8-.15-10.65.1-9.07.65-17.69,1.34-26.11a152.46,152.46,0,0,1,3.87-23.81A57.4,57.4,0,0,1,941,332.5c3.29-4.79,7.89-10.45,17-10.45,7.73,0,11.83,5,16,11.39,2.87,4.38,9,21.47,9.85,32.93,1.15,14.75,1.49,29.73,1.49,38.55,0,22.59-.82,33.46-4.17,46.64s-12.64,31-23.81,31c-9,0-20.06-7.75-24.85-32A201.39,201.39,0,0,1,928.16,411.17Zm22.32,33.54c1.86,3.54,4,6.49,6.92,6.38,2.12-.07,5.27-2.57,6.64-6a65.49,65.49,0,0,0,3.74-13.78,231.41,231.41,0,0,0,2-33.1c-.24-11.71-.09-20.32-1.26-26.93-2.63-14.77-8-18.67-11-18.57-6.58.22-11,8.7-12.34,19.16-1.14,8.92-1.08,10.54-1.28,27.07C944.12,401.11,942.61,429.75,950.48,444.71Z" transform="translate(-4.46 -67.81)"/><path class="cls-2" d="M999.78,478.58V324.26h14.33l22.53,95.9v-95.9h14V478.58H1036.5l-23.22-89.82.14,17-.14,40.48.3,32.38Z" transform="translate(-4.46 -67.81)"/></svg>